inDegrees=no
num_controls=7
num_derivatives=13
num_iterations=160
num_multipliers=7
num_parameters=0
num_slacks=7
num_states=26
objective=0.497132
objective_accelerations=0.041644
objective_balance=0.003497
objective_effort=0.039439
objective_height=0.406714
objective_ligament=0.005838
solver_duration=2078.900210
status=Solve_Succeeded
success=true
DataType=double
version=3
OpenSimVersion=4.5
endheader
time	/jointset/ground_pelvis/pelvis_tilt/value	/jointset/ground_pelvis/pelvis_tx/value	/jointset/ground_pelvis/pelvis_ty/value	/jointset/hip_r/hip_flexion_r/value	/jointset/hip_r/hip_adduction_r/value	/jointset/hip_r/hip_rotation_r/value	/jointset/back/lumbar_extension/value	/jointset/patellofemoral_r/patellar_flexion_r/value	/jointset/knee_r/knee_flexion_r/value	/jointset/knee_r/knee_adduction_r/value	/jointset/knee_r/knee_rotation_r/value	/jointset/ankle_r/ankle_angle_r/value	/jointset/subtalar_r/subtalar_angle_r/value	/jointset/ground_pelvis/pelvis_tilt/speed	/jointset/ground_pelvis/pelvis_tx/speed	/jointset/ground_pelvis/pelvis_ty/speed	/jointset/hip_r/hip_flexion_r/speed	/jointset/hip_r/hip_adduction_r/speed	/jointset/hip_r/hip_rotation_r/speed	/jointset/back/lumbar_extension/speed	/jointset/patellofemoral_r/patellar_flexion_r/speed	/jointset/knee_r/knee_flexion_r/speed	/jointset/knee_r/knee_adduction_r/speed	/jointset/knee_r/knee_rotation_r/speed	/jointset/ankle_r/ankle_angle_r/speed	/jointset/subtalar_r/subtalar_angle_r/speed	/forceset/tau_hip_flexion_r	/forceset/tau_hip_adduction_r	/forceset/tau_hip_rotation_r	/forceset/tau_knee_flexion_r	/forceset/tau_ankle_angle_r	/forceset/tau_subtalar_angle_r	/forceset/tau_lumbar_extension	lambda_cid13_p0	lambda_cid14_p0	lambda_cid14_p1	lambda_cid14_p2	lambda_cid14_p3	lambda_cid14_p4	lambda_cid14_p5	/jointset/ground_pelvis/pelvis_tilt/accel	/jointset/ground_pelvis/pelvis_tx/accel	/jointset/ground_pelvis/pelvis_ty/accel	/jointset/hip_r/hip_flexion_r/accel	/jointset/hip_r/hip_adduction_r/accel	/jointset/hip_r/hip_rotation_r/accel	/jointset/back/lumbar_extension/accel	/jointset/patellofemoral_r/patellar_flexion_r/accel	/jointset/knee_r/knee_flexion_r/accel	/jointset/knee_r/knee_adduction_r/accel	/jointset/knee_r/knee_rotation_r/accel	/jointset/ankle_r/ankle_angle_r/accel	/jointset/subtalar_r/subtalar_angle_r/accel	gamma_cid13_p0	gamma_cid14_p0	gamma_cid14_p1	gamma_cid14_p2	gamma_cid14_p3	gamma_cid14_p4	gamma_cid14_p5
0	-0.006515322282182841	0.09626027344900492	0.9427240685330994	0.1762555222360518	-0.2321527638256604	-0.2616399819962998	-0.038598046466844	0.07317863873451273	0.07317863873451017	0.1745328466845889	0.1745322770666209	0.03247278518263602	-0.00345206483821722	0	0	0	0	0	0	0	0	0	0	0	0	0	0.2259050783486905	-0.160716824766358	-0.0448260584910475	-0.4101759859552591	0.40987852839769	-0.1491671835265851	-0.121820806029716	-39.07619204018746	81.83687736866476	-40.63706546834916	-4.274973423471291	-35.66857965464129	-677.4892563426266	55.18748727960764	-1.855332605852745	-1.030060682249367	-0.6078676011707982	8.78054793219178	-0.00521181194589858	2.566791373626854	-4.952082583041408	9.467459298354667	9.467459298354626	-2.539732453071823	0.1811804768001941	3.297320225127842	0.7304941458856024	8.683460664200134e-08	3.543699090608851e-08	-6.394984283799247e-07	1.826425343156213e-07	3.546927814879259e-08	1.939653569711541e-08	-3.124081417413113e-07
0.01	-0.006601873853810526	0.09621068473018858	0.9426948623570279	0.1766790020329422	-0.2321519632041986	-0.261503505101659	-0.0388475115758566	0.07363865969265031	0.07363865969265192	0.1744063857979903	0.1745294986496798	0.03263508770961594	-0.00341510962103664	-0.01726541092964754	-0.009756814903668908	-0.005826505906586074	0.08421454621798984	0.0001098657513941337	0.02717020491053197	-0.04949869477242612	0.0916202677833786	0.09162026778338157	-0.02506844440878999	-0.0005387104915233576	0.03245617075989931	0.007338394083096321	0.2244834407100303	-0.1743291784691789	-0.04477798493510873	-0.4121039593754444	0.4122131577552221	-0.1372749695347071	-0.1199744105433435	-39.09161517471754	83.06461485171948	-35.33836395706552	-5.027147792215215	-38.06177364580666	-678.1048374593677	65.79160411404304	-1.655407599825915	-0.9243454715938138	-0.5678288099398129	8.169698036313598	0.0114802862825779	2.773405475224304	-4.889613869827249	8.951704574816018	8.951704574816372	-2.456922137171742	-0.1687951788054401	3.219129168919161	0.7275351897690948	1.165271989702538e-07	2.609732713156856e-08	-8.711509798460746e-07	1.692186658186776e-07	7.259878033139846e-08	-1.640689009953848e-07	-3.723760156044053e-07
0.02	-0.006859731987395356	0.09606835714690198	0.9426078337769829	0.1779301853059556	-0.2321515850217026	-0.2610990720728202	-0.03958013382169003	0.07500336213991969	0.07500336213992152	0.1740359361268182	0.1745218534544439	0.03312182467769476	-0.003306365832975612	-0.03426131239149754	-0.01854777289405592	-0.01156448079469633	0.1655406952244214	-8.44877931908091e-05	0.05359122683937891	-0.09663142736421422	0.1809362978262191	0.1809362978262204	-0.04879775691314462	-0.0009733556501176698	0.0648868882197256	0.01435771417608996	0.2230618030713694	-0.1879415321720016	-0.04472991137918474	-0.4140319327956355	0.4145477871127495	-0.1253827555428318	-0.1181280150569656	-39.13718673060718	84.37487895339112	-30.04559214687626	-5.755097146593398	-40.64951045074374	-677.472033091384	76.17186077649214	-1.801430712293245	-0.8368892995929745	-0.590161397475635	8.202868489880109	-0.0660556711417274	2.416954777289738	-4.478890146913802	9.006611750247062	9.006611750246085	-2.271906072184719	0.2019935433861166	3.29222956511325	0.6666793478650547	1.462197912985062e-07	1.675766335704862e-08	-1.102803531312224e-06	1.55794797321734e-07	1.097282825140043e-07	-3.475343376878849e-07	-4.323438894674992e-07
0.03	-0.007286026900000023	0.09584124094439572	0.9424635830164722	0.1799822116067957	-0.232154721953841	-0.2604364408381041	-0.04077280463178803	0.07725032751571864	0.07725032751571997	0.1734352476602127	0.1745124279102135	0.03393066682940303	-0.003129521565091111	-0.05089114649795717	-0.02688366461018853	-0.01729058419295304	0.2445176347913954	-0.0005757556965530593	0.07880336221411545	-0.141608647539789	0.2680580416530144	0.2680580416530146	-0.07112700745810958	-0.0009262507381120764	0.09666161099493732	0.02092767451881916	0.2151494569766546	-0.1926234609763723	-0.0423977744145569	-0.4027372141606292	0.3953568542800711	-0.1137999688881262	-0.1121285037193322	-39.21170777307638	78.681977441179	-26.08881603903234	-6.298143438406719	-36.86745130243426	-676.8038805592375	82.82973306697073	-1.577769661617724	-0.8331465623651368	-0.5646419919675728	7.693071320304902	-0.04572270846511287	2.553647152820185	-4.463024885535043	8.505115982884373	8.50511598288473	-2.181653962425972	-0.09603648171541498	3.08712965721941	0.6394786970984691	1.676795941605921e-07	1.553655393885871e-08	-1.258269662781335e-06	1.751480319455118e-07	1.303849331555567e-07	-4.617203904129543e-07	-4.986867574354079e-07
0.04	-0.007875422134028183	0.09553052433377984	0.9422619097857853	0.1828136002293464	-0.2321637836367196	-0.2595256274025909	-0.04240642503017306	0.08035654238658403	0.08035654238658468	0.1726176228048053	0.1745030523257269	0.03505066341356213	-0.002889512829855009	-0.06688137667623169	-0.03526785451598548	-0.02304897482991671	0.3214131595663225	-0.001269437941181532	0.103227666999034	-0.1848213450215935	0.3527861968393535	0.3527861968393544	-0.09218503467401765	-0.0009633636990332178	0.1271177747099199	0.02699060764641274	0.2072371108819463	-0.1973053897807408	-0.04006563744993227	-0.3914424955256191	0.3761659214473944	-0.1022171822334179	-0.1061289923816948	-39.3136640847199	73.06419214774031	-22.13067071205659	-6.827948155015365	-33.27334613719869	-675.0132947876606	89.29849847090033	-1.673509926656228	-0.8465489375258297	-0.5966188452170255	7.786585531470706	-0.106538539394982	2.259388659326102	-4.125985608159733	8.527894022155806	8.527894022155216	-2.017661406373316	0.1851499688008228	3.028517753067427	0.5652739048379218	1.889696487862622e-07	1.448283739399519e-08	-1.412164940229888e-06	1.951770831284798e-07	1.507019373735821e-07	-5.744780022314788e-07	-5.651610685807353e-07
